<?xml version="1.0" encoding="utf-8"?>
<svg viewBox="60.579 136.888 356.423 142.381" width="356.423" height="142.381" xmlns="http://www.w3.org/2000/svg">
  <path d="M 157.088 255.091 L 135.654 255.091 L 135.654 198.223 L 120.04 234.925 L 105.348 234.925 L 89.733 198.223 L 89.733 255.091 L 69.452 255.091 L 69.452 169.299 L 94.285 169.299 L 113.299 211.648 L 132.255 169.299 L 157.088 169.299 Z M 235.79 222.768 Q 235.79 238.728 227.061 247.918 Q 218.332 257.108 202.372 257.108 Q 186.528 257.108 177.741 247.918 Q 168.955 238.728 168.955 222.768 Q 168.955 206.635 177.741 197.503 Q 186.528 188.37 202.372 188.37 Q 218.275 188.37 227.033 197.56 Q 235.79 206.75 235.79 222.768 Z M 215.106 222.883 Q 215.106 217.121 214.155 213.29 Q 213.205 209.458 211.534 207.154 Q 209.747 204.734 207.5 203.783 Q 205.253 202.832 202.372 202.832 Q 199.664 202.832 197.475 203.668 Q 195.286 204.503 193.442 206.865 Q 191.713 209.112 190.676 213.03 Q 189.639 216.948 189.639 222.883 Q 189.639 228.818 190.619 232.476 Q 191.598 236.135 193.154 238.324 Q 194.767 240.571 197.187 241.609 Q 199.607 242.646 202.545 242.646 Q 204.965 242.646 207.472 241.609 Q 209.978 240.571 211.476 238.497 Q 213.262 236.02 214.184 232.534 Q 215.106 229.048 215.106 222.883 Z M 335.288 255.091 L 313.855 255.091 L 313.855 198.223 L 298.241 234.925 L 283.548 234.925 L 267.934 198.223 L 267.934 255.091 L 247.653 255.091 L 247.653 169.299 L 272.486 169.299 L 291.499 211.648 L 310.455 169.299 L 335.288 169.299 Z M 413.991 222.768 Q 413.991 238.728 405.262 247.918 Q 396.533 257.108 380.573 257.108 Q 364.728 257.108 355.942 247.918 Q 347.155 238.728 347.155 222.768 Q 347.155 206.635 355.942 197.503 Q 364.728 188.37 380.573 188.37 Q 396.476 188.37 405.233 197.56 Q 413.991 206.75 413.991 222.768 Z M 393.307 222.883 Q 393.307 217.121 392.356 213.29 Q 391.405 209.458 389.734 207.154 Q 387.948 204.734 385.701 203.783 Q 383.454 202.832 380.573 202.832 Q 377.865 202.832 375.676 203.668 Q 373.486 204.503 371.643 206.865 Q 369.914 209.112 368.877 213.03 Q 367.84 216.948 367.84 222.883 Q 367.84 228.818 368.819 232.476 Q 369.799 236.135 371.354 238.324 Q 372.968 240.571 375.388 241.609 Q 377.808 242.646 380.746 242.646 Q 383.166 242.646 385.672 241.609 Q 388.179 240.571 389.677 238.497 Q 391.463 236.02 392.385 232.534 Q 393.307 229.048 393.307 222.883 Z" style="fill: rgb(51, 51, 51); stroke: rgb(251, 255, 238); stroke-width: 3px; white-space: pre;"/>
</svg>